<?xml version="1.0" encoding="utf-8"?>
<!-- Generator: Adobe Illustrator 21.0.0, SVG Export Plug-In . SVG Version: 6.00 Build 0)  -->
<svg version="1.1" id="Layer_1" xmlns="http://www.w3.org/2000/svg" xmlns:xlink="http://www.w3.org/1999/xlink" x="0px" y="0px"
	 viewBox="0 0 463 463" style="enable-background:new 0 0 463 463;" xml:space="preserve">
<style type="text/css">
	.st0{fill:#D4E1F4;}
	.st1{fill:#4871D1;}
	.st2{fill:#00B67A;}
</style>
<g>
	<path class="st0" d="M153.6,218.7c-0.3,0.3-0.7,0.6-0.9,0.9c-1,1-1.8,2-2.6,3.1c3.5-3.3,6.9-6.7,10.6-10.4l-0.1-0.1
		C158.3,214.4,156,216.5,153.6,218.7C153.7,218.6,153.7,218.6,153.6,218.7z"/>
	<path class="st0" d="M337.9,441c-1.2,0-2.4,0-3.5-0.1c-24-1.5-46.5-11-63.4-19.1c-47-22.8-88.7-55.4-122.1-95.6
		c-28.2-33.9-47.1-65.4-59.5-99.1c-7.5-20-10.3-35.4-9.1-50c0.5-8.1,4.1-15.6,9.9-21.2l-10,10c-5.8,5.6-9.3,13.2-9.9,21.2
		c-1.2,14.6,1.6,30,9.1,50c12.5,33.7,31.4,65.1,59.5,99.1C172.4,376.4,214,409,261,431.8c16.9,8.1,39.4,17.6,63.4,19.1
		c1.1,0.1,2.3,0.1,3.5,0.1c11.4,0,19.7-3.5,27.1-11.4c1.5-1.8,3.1-3.5,4.7-5.2C353.6,438.9,346.6,441,337.9,441z"/>
	<path class="st0" d="M370.7,423.3l0.5-0.5l0,0C371,423,370.8,423.2,370.7,423.3z"/>
	<path class="st0" d="M318.6,180c-35.4,0-67.9-19.9-83.9-51.5c-16-31.6-12.8-69.6,8.2-98.1c-29.8,21.9-44,59.2-36.2,95.4
		c7.8,36.2,36,64.4,72.2,72.2c36.2,7.8,73.5-6.4,95.4-36.2C358.2,173.6,338.7,180,318.6,180z"/>
</g>
<path class="st1" d="M129.7,343.9c34.5,41.5,77.5,75.2,126.1,98.8c17.9,8.6,41.7,18.6,67.8,20.3c1.5,0.1,3,0.1,4.3,0.1
	c14.6,0,26.4-5,36-15.3c0.1-0.1,0.1-0.1,0.2-0.2c5-5.7,10.3-11.2,15.9-16.4l1.9-1.9c2.9-2.9,5.7-5.6,8.5-8.6
	c10.8-11.2,10.7-23.9-0.2-34.7l-46.4-46.4c-2.8-3-8.6-8-16.4-8c-5.8,0-11.7,2.8-16.9,8.1l-28.8,28.8c-1.1,1.1-4,4-8.5,4
	c-1.9,0-3.8-0.5-5.6-1.4l-0.1-0.1c-0.2-0.1-0.5-0.3-0.7-0.4c-2.6-1.6-5.6-3.1-8.6-4.6c-3.4-1.6-6.6-3.4-9.8-5.3
	c-26.4-16.7-50.4-38.5-73.2-66.6c-0.1-0.1-0.1-0.2-0.2-0.2c-12.4-15.7-20.4-28.8-26.1-42.5l-0.2-0.5c-1.5-4.8-1.5-8.6,2.9-13
	c0.1-0.1,0.1-0.1,0.2-0.2l0.1-0.1c7.2-6.4,13.7-12.9,21.3-20.7c1.7-1.6,3.3-3.2,4.9-4.8c0.8-0.8,1.6-1.6,2.4-2.4
	c11.3-11.3,11.3-23.2,0-34.5l-22.9-22.9c-1.3-1.4-2.7-2.8-4-4.1c-1.3-1.4-2.7-2.7-4-4c-5.6-5.8-10.3-10.6-15.3-15.2l-0.2-0.2
	c-5-5-10.7-7.6-16.5-7.6c-5.8,0-11.6,2.6-16.9,7.6c0,0-0.1,0.1-0.1,0.1l-28.7,28.7c-7.8,7.6-12.6,17.8-13.3,28.7
	c-1.4,16.5,1.7,33.5,9.8,55.2C81.1,276.3,100.7,308.9,129.7,343.9z M327.3,343.6c3.5,0,6.5,2.9,7.7,4.2c0.1,0.1,0.1,0.2,0.2,0.2
	l46.5,46.5c6.3,6.2,6.3,11.2,0.2,17.6c-0.2,0.2-0.5,0.5-0.7,0.7c-0.5,0.5-1,1-1.5,1.6l-63.6-63.6l2.7-2.7
	C320.5,346.5,323.9,343.6,327.3,343.6z M117.4,133c3.2,0,6.1,2.2,8,4.1l0.3,0.3c0,0,0.1,0.1,0.1,0.1c4.8,4.5,9.4,9.2,14.9,14.8
	c1.3,1.4,2.7,2.7,4,4.1c1.3,1.3,2.6,2.7,4,4.1l23,23c6.6,6.6,6.6,11,0,17.6c-0.8,0.8-1.6,1.6-2.4,2.5l-0.2,0.2l-63.4-63.4l3.1-3.1
	C111.8,134.5,114.8,133,117.4,133z M70.3,187.1c0.5-8.1,4.1-15.6,9.9-21.2l17-17l63.4,63.4c-5.9,5.9-11.2,11.2-17,16.3l0,0
	c-0.3,0.3-0.7,0.6-0.9,0.9c-10.1,10.4-6.7,21.2-5.5,24.9l0.3,0.8c0,0.1,0.1,0.3,0.1,0.4c6.1,14.8,14.8,28.9,28,45.7
	c0.1,0.1,0.2,0.2,0.3,0.4c23.6,29.1,48.5,51.6,75.9,69c3.5,2.2,7.1,4.1,10.9,5.9c2.9,1.4,5.6,2.8,7.8,4.2c0.1,0.1,0.2,0.1,0.4,0.2
	l0.1,0.1c0.3,0.2,0.7,0.4,1,0.6c3.4,1.8,7.2,2.7,11,2.7c6.3,0,12-2.5,17-7.6l17.6-17.6l63.5,63.5c-5.7,5.3-11.1,10.9-16.2,16.8
	c-7.4,7.9-15.8,11.4-27.1,11.4c-1.2,0-2.4,0-3.5-0.1c-24-1.5-46.5-11-63.4-19.1c-47-22.8-88.7-55.4-122.1-95.6
	c-28.2-33.9-47.1-65.4-59.5-99.1C71.9,217.1,69.1,201.7,70.3,187.1z"/>
<path class="st2" d="M298.6,212c58.5,0,106-47.4,106-106S357.2,0,298.6,0c-58.5,0-106,47.4-106,106
	C192.7,164.5,240.1,211.9,298.6,212z M298.6,12c51.9,0,94,42.1,94,94s-42.1,94-94,94c-51.9,0-94-42.1-94-94
	C204.7,54.1,246.8,12.1,298.6,12z"/>
<path class="st2" d="M308.3,68.9c-8.8,0-15.6,3.3-20.4,9.9c-4.8,6.6-7.2,15.8-7.2,27.5c0,24.5,9.2,36.8,27.6,36.8
	c7.7,0,17.1-1.9,28-5.8v19.5c-9,3.8-19.1,5.6-30.2,5.6c-16,0-28.2-4.8-36.7-14.5c-8.5-9.7-12.7-23.6-12.7-41.8
	c0-11.4,2.1-21.4,6.2-30c4.2-8.6,10.1-15.2,17.9-19.8s16.9-6.9,27.4-6.9c10.7,0,21.4,2.6,32.2,7.7L333,76.2c-4.1-2-8.2-3.7-12.4-5.1
	C316.4,69.6,312.3,68.9,308.3,68.9z"/>
</svg>
