<?xml version="1.0" encoding="utf-8"?>
<!-- Generator: Adobe Illustrator 21.0.0, SVG Export Plug-In . SVG Version: 6.00 Build 0)  -->
<svg version="1.1" id="Layer_1" xmlns="http://www.w3.org/2000/svg" xmlns:xlink="http://www.w3.org/1999/xlink" x="0px" y="0px"
	 viewBox="0 0 512 512" style="enable-background:new 0 0 512 512;" xml:space="preserve">
<style type="text/css">
	.st0{fill:#D4E1F4;}
	.st1{fill:#4871D1;}
	.st2{fill:#2F55D4;}
	.st3{fill:#00B67A;}
</style>
<title>E-mail</title>
<path class="st0" d="M114,81c0-18.8,15.2-34,34-34h-30c-18.8,0-34,15.2-34,34v14h30V81z"/>
<rect x="84" y="107" class="st0" width="30" height="286"/>
<path class="st0" d="M114,431v-26H84v26c0,18.8,15.2,34,34,34h30C129.2,465,114,449.8,114,431z"/>
<path class="st1" d="M118.5,477h160c25.2-0.1,45.6-20.6,45.5-45.8c0-0.1,0-0.2,0-0.2V331h-12v62H84V107h163.5c3.3,0,6-2.7,6-6
	s-2.7-6-6-6H84V81c0-18.7,15.8-34,34.5-34h160c18.7,0,33.5,15.3,33.5,34v14h-13.5c-3.3,0-6,2.7-6,6s2.7,6,6,6H312v48h12V81
	c0.2-25.2-20.1-45.8-45.3-46c-0.1,0-0.2,0-0.2,0h-160C93.1,35,72,55.6,72,81v350C72,456.4,93.1,477,118.5,477z M84,405h228v26
	c0,18.7-14.8,34-33.5,34h-160C99.8,465,84,449.7,84,431V405z"/>
<path class="st2" d="M267.2,95c-3.3,0-6,2.7-6,6s2.7,6,6,6h11.1c3.3,0,6-2.7,6-6s-2.7-6-6-6H267.2z"/>
<path class="st1" d="M198.5,456c11.6,0,21-9.4,21-21s-9.4-21-21-21s-21,9.4-21,21S186.9,456,198.5,456z M198.5,426c5,0,9,4,9,9
	s-4,9-9,9s-9-4-9-9S193.5,426,198.5,426z"/>
<path class="st3" d="M439,174c0-14.4-11.6-26-26-26H213c-14.4,0-26,11.6-26,26v138c0,14.4,11.6,26,26,26l0,0h200
	c14.4,0,26-11.6,26-26l0,0V174z M213.5,326c-2.3,0-4.6-0.6-6.6-1.7l48.8-60.1c2.1-2.5,1.8-6.3-0.8-8.5s-6.3-1.8-8.5,0.8l-0.1,0.1
	l-46.9,57.5c-0.2-0.7-0.4-1.4-0.4-2.2V193.7l94,73.9c5.5,5.3,12.8,8.2,20.4,8.2c7.5,0,14.7-2.9,20.1-8.2l93.5-73.9V312
	c0.1,0.7,0.1,1.5,0.1,2.2l-46.9-57.6c-2.1-2.5-5.8-2.9-8.3-0.9l0,0c-2.6,2.1-2.9,5.9-0.8,8.4l49.1,60.1c-2,1.1-4.3,1.6-6.6,1.6
	H213.5V326z M213.5,160h200c7.7,0,13.5,6.3,13.5,14v4.4l-101.1,79.9c-0.2,0.1-0.2,0.3-0.4,0.5c-6.7,6.6-17.5,6.6-24.1,0
	c-0.2-0.2-0.6-0.3-0.7-0.5L199,178.4V174C199,166.3,205.8,160,213.5,160z"/>
</svg>
