<?xml version="1.0" encoding="iso-8859-1"?>
<!-- Generator: Adobe Illustrator 19.0.0, SVG Export Plug-In . SVG Version: 6.00 Build 0)  -->
<svg version="1.1" id="Layer_1" xmlns="http://www.w3.org/2000/svg" xmlns:xlink="http://www.w3.org/1999/xlink" x="0px" y="0px"
	 viewBox="0 0 512 512" style="enable-background:new 0 0 512 512;" xml:space="preserve">
<g>
	<g>
		<path d="M511.993,190.848c-0.348-57.965-47.422-105.016-105.24-105.016H256.007c-8.656,0-15.673,7.017-15.673,15.673
			c0,8.656,7.017,15.673,15.673,15.673h150.746c35.231,0,64.763,24.926,72.121,58.159H206.616
			c-68.255,0-130.676,41.457-156.555,106.455l-23.201,58.273c-0.003,0.007-0.005,0.015-0.008,0.022L1.125,404.698
			c-4.097,10.292,3.509,21.471,14.561,21.471h480.641c8.656,0,15.673-7.017,15.673-15.673V191.01
			C512,190.955,511.993,190.902,511.993,190.848z M480.655,394.821H38.797l13.131-32.978h428.728V394.821z M480.655,330.498H64.407
			l14.776-37.111c20.86-52.39,71.279-86.705,127.433-86.705h274.04V330.498z"/>
	</g>
</g>
<g>
	<g>
		<ellipse cx="430.791" cy="268.866" rx="21.847" ry="21.953"/>
	</g>
</g>
<g>
</g>
<g>
</g>
<g>
</g>
<g>
</g>
<g>
</g>
<g>
</g>
<g>
</g>
<g>
</g>
<g>
</g>
<g>
</g>
<g>
</g>
<g>
</g>
<g>
</g>
<g>
</g>
<g>
</g>
</svg>
