<?xml version="1.0" encoding="utf-8"?>
<!-- Generator: Adobe Illustrator 21.0.0, SVG Export Plug-In . SVG Version: 6.00 Build 0)  -->
<svg version="1.1" id="Layer_1" xmlns="http://www.w3.org/2000/svg" xmlns:xlink="http://www.w3.org/1999/xlink" x="0px" y="0px"
	 viewBox="0 0 1000 1000" style="enable-background:new 0 0 1000 1000;" xml:space="preserve">
<style type="text/css">
	.st0{fill:#192236;}
</style>
<path class="st0" d="M56.3,145.4h886.1c22.9,0,41.5,18.6,41.5,41.5v0c0,22.9-18.6,41.5-41.5,41.5H56.3c-22.9,0-41.5-18.6-41.5-41.5
	v0C14.8,164,33.4,145.4,56.3,145.4z"/>
<path class="st0" d="M56.3,456.3h886.1c22.9,0,41.5,18.6,41.5,41.5v0c0,22.9-18.6,41.5-41.5,41.5H56.3c-22.9,0-41.5-18.6-41.5-41.5
	v0C14.8,474.9,33.4,456.3,56.3,456.3z"/>
<path class="st0" d="M56.4,772.2h886c23,0,41.6,18.6,41.6,41.6v0c0,23-18.6,41.6-41.6,41.6h-886c-23,0-41.6-18.6-41.6-41.6v0
	C14.8,790.8,33.4,772.2,56.4,772.2z"/>
</svg>
