<?xml version="1.0" encoding="iso-8859-1"?>
<!-- Generator: Adobe Illustrator 19.0.0, SVG Export Plug-In . SVG Version: 6.00 Build 0)  -->
<svg version="1.1" id="Capa_1" xmlns="http://www.w3.org/2000/svg" xmlns:xlink="http://www.w3.org/1999/xlink" x="0px" y="0px"
	 viewBox="0 0 512 512" style="enable-background:new 0 0 512 512;" xml:space="preserve">
<g>
	<g>
		<path d="M167.565,289.753c-4.142,0-7.5,3.357-7.5,7.5v16.005c0,4.143,3.358,7.5,7.5,7.5c4.142,0,7.5-3.357,7.5-7.5v-16.005
			C175.065,293.11,171.707,289.753,167.565,289.753z"/>
	</g>
</g>
<g>
	<g>
		<path d="M344.437,289.753c-4.142,0-7.5,3.357-7.5,7.5v16.005c0,4.143,3.358,7.5,7.5,7.5c4.142,0,7.5-3.357,7.5-7.5v-16.005
			C351.937,293.11,348.579,289.753,344.437,289.753z"/>
	</g>
</g>
<g>
	<g>
		<path d="M282.765,306.498c-3.119-2.726-7.858-2.409-10.583,0.71c-3.94,4.507-9.838,7.093-16.181,7.093
			c-6.343,0-12.241-2.585-16.181-7.093c-2.726-3.118-7.464-3.437-10.583-0.71c-3.119,2.727-3.437,7.464-0.711,10.583
			c6.789,7.767,16.803,12.221,27.475,12.221c10.671,0,20.685-4.455,27.474-12.221C286.202,313.962,285.883,309.224,282.765,306.498z
			"/>
	</g>
</g>
<g>
	<g>
		<path d="M256.001,30.513c-15.257,0-27.669,12.413-27.669,27.67c0,15.257,12.412,27.669,27.669,27.669s27.669-12.413,27.669-27.669
			S271.258,30.513,256.001,30.513z M256.001,70.852c-6.985,0-12.669-5.684-12.669-12.669c0-6.987,5.683-12.67,12.669-12.67
			c6.986,0,12.669,5.684,12.669,12.67C268.67,65.169,262.986,70.852,256.001,70.852z"/>
	</g>
</g>
<g>
	<g>
		<path d="M143.828,30.513c-15.256,0-27.669,12.413-27.669,27.67c0,15.257,12.412,27.669,27.669,27.669
			c15.257,0,27.669-12.413,27.669-27.669S159.084,30.513,143.828,30.513z M143.828,70.852c-6.986,0-12.669-5.684-12.669-12.669
			c-0.001-6.987,5.683-12.67,12.669-12.67c6.986,0,12.669,5.684,12.669,12.67C156.497,65.169,150.813,70.852,143.828,70.852z"/>
	</g>
</g>
<g>
	<g>
		<path d="M368.174,30.513c-15.256,0-27.669,12.413-27.669,27.67c0,15.257,12.413,27.669,27.669,27.669
			c15.257,0,27.669-12.413,27.669-27.669S383.43,30.513,368.174,30.513z M368.174,70.852c-6.985,0-12.669-5.684-12.669-12.669
			c0-6.987,5.684-12.67,12.669-12.67c6.986,0,12.669,5.684,12.669,12.67C380.843,65.169,375.159,70.852,368.174,70.852z"/>
	</g>
</g>
<g>
	<g>
		<path d="M476.359,126.861V48.863h0.001C476.36,21.92,454.44,0,427.497,0H84.505C57.561,0,35.642,21.92,35.642,48.863v77.998
			C19.579,130.316,7.5,144.621,7.5,161.701v280.241c0,17.08,12.079,31.386,28.142,34.841v8.018C35.642,499.799,47.842,512,62.84,512
			h40.24c14.998,0,27.199-12.201,27.199-27.199v-7.217h251.443v7.217c0,14.998,12.202,27.199,27.199,27.199h40.24
			c14.997,0,27.198-12.201,27.198-27.199v-8.018c16.063-3.455,28.142-17.761,28.142-34.841V161.701
			C504.501,144.621,492.422,130.315,476.359,126.861z M50.642,48.863C50.642,30.191,65.833,15,84.505,15h342.992
			c18.672,0,33.863,15.191,33.863,33.863v77.197h-12.713v-2.868c0-16.028-13.04-29.067-29.067-29.067H316.769
			c-16.028,0-29.067,13.04-29.067,29.067v2.868h-63.4v-2.868c0-16.028-13.04-29.067-29.067-29.067H92.422
			c-16.028,0-29.067,13.04-29.067,29.067v2.868H50.642V48.863z M433.647,123.192v2.868H302.701v-2.868
			c0-7.757,6.311-14.067,14.067-14.067h102.812C427.337,109.125,433.647,115.436,433.647,123.192z M209.301,123.192v2.868H78.355
			v-2.868c0-7.757,6.311-14.067,14.067-14.067h102.812C202.991,109.125,209.301,115.436,209.301,123.192z M115.28,484.801
			L115.28,484.801c-0.001,6.727-5.474,12.199-12.2,12.199H62.84c-6.726,0-12.198-5.473-12.198-12.199v-7.217h64.638V484.801z
			 M461.361,484.801h-0.001c0,6.727-5.472,12.199-12.198,12.199h-40.24c-6.727,0-12.199-5.473-12.199-12.199v-7.217h64.638V484.801z
			 M489.502,441.942c0,11.382-9.26,20.642-20.642,20.642H43.142c-11.382,0-20.642-9.26-20.642-20.642V161.701
			c0-11.382,9.26-20.641,20.642-20.641h425.719c11.381,0,20.641,9.259,20.641,20.641V441.942z"/>
	</g>
</g>
<g>
	<g>
		<path d="M451.491,168.597H60.511c-14.402,0-26.118,11.716-26.118,26.118c0,11.795,7.861,21.784,18.618,25.016V422.27
			c0,4.142,3.358,7.5,7.5,7.5h315.28c4.142,0,7.5-3.358,7.5-7.5c0-4.142-3.358-7.5-7.5-7.5H68.011V220.833h34.722
			c4.142,0,7.5-3.358,7.5-7.5c0-4.142-3.358-7.5-7.5-7.5H60.511c-6.13,0-11.118-4.988-11.118-11.118
			c0-6.13,4.988-11.118,11.118-11.118h390.98c6.13,0,11.118,4.988,11.118,11.118c0,6.13-4.988,11.118-11.118,11.118H132.616
			c-4.142,0-7.5,3.358-7.5,7.5c0,4.142,3.358,7.5,7.5,7.5h311.375V414.77h-38.288c-4.142,0-7.5,3.358-7.5,7.5
			c0,4.142,3.358,7.5,7.5,7.5h45.788c4.142,0,7.5-3.358,7.5-7.5V219.731c10.757-3.231,18.618-13.22,18.618-25.016
			C477.609,180.313,465.893,168.597,451.491,168.597z"/>
	</g>
</g>
<g>
</g>
<g>
</g>
<g>
</g>
<g>
</g>
<g>
</g>
<g>
</g>
<g>
</g>
<g>
</g>
<g>
</g>
<g>
</g>
<g>
</g>
<g>
</g>
<g>
</g>
<g>
</g>
<g>
</g>
</svg>
